[Header]			# Header keywords are followed by a single value
FileType htr		# single word string
DataType HTRS		# Hierarchical translations followed by rotations and Scale
FileVersion 1		# integer
NumSegments 20		# integer
NumFrames 7		# integer
DataFrameRate 60	# integer
EulerRotationOrder ZYX	# one word string
CalibrationUnits mm	# one word string
RotationUnits Degrees	# one word string
GlobalAxisofGravity Y	# character, X or Y or Z
BoneLengthAxis Y
ScaleFactor 1.000000
[SegmentNames&Hierarchy]
#CHILD	PARENT
LowerTorso	GLOBAL
UpperTorso	LowerTorso
LCollarBone	UpperTorso
RCollarBone	UpperTorso
LUpArm	LCollarBone
RUpArm	RCollarBone
LLowArm	LUpArm
RLowArm	RUpArm
LHand	LLowArm
RHand	RLowArm
LPelvis	LowerTorso
RPelvis	LowerTorso
LThigh	LPelvis
RThigh	RPelvis
LLowLeg	LThigh
RLowLeg	RThigh
LFoot	LLowLeg
RFoot	RLowLeg
Neck	UpperTorso
Head	Neck
[BasePosition]
#SegmentName Tx, Ty, Tz, Rx, Ry, Rz, BoneLength
LowerTorso	0.000000	0.000000	0.000000	0.000000	0.000000	0.000000	247.497849
UpperTorso	0.000000	247.497849	0.000000	-3.483188	-0.016176	-0.898562	303.935425
LCollarBone	0.000000	303.935425	0.000000	-2.778975	2.380151	-103.909637	160.814774
RCollarBone	0.000000	303.935425	0.000000	1.923138	-2.431442	97.423370	173.085861
LUpArm	0.000000	160.814774	0.000000	9.905276	-0.146364	3.830753	266.228302
RUpArm	0.000000	173.085861	0.000000	3.559436	0.163580	4.186032	250.544907
LLowArm	0.000000	266.228302	0.000000	0.604391	2.460426	18.478745	239.401855
RLowArm	0.000000	250.544907	0.000000	-4.677841	-1.676118	-16.763147	247.676224
LHand	0.000000	239.401855	0.000000	-2.922581	-1.504997	-10.879651	178.693573
RHand	0.000000	247.676224	0.000000	8.087741	0.221451	14.771751	171.097885
LPelvis	0.000000	0.000000	0.000000	25.628080	-1.004481	-103.107483	127.213554
RPelvis	0.000000	0.000000	0.000000	7.212610	1.026056	95.806335	154.731140
LThigh	0.000000	127.213554	0.000000	-8.629928	-24.934669	-78.343170	392.414856
RThigh	0.000000	154.731140	0.000000	-0.087953	7.045837	82.361420	403.151337
LLowLeg	0.000000	392.414856	0.000000	-11.135172	-0.396179	6.207254	411.539612
RLowLeg	0.000000	403.151337	0.000000	-15.879393	-0.038285	-2.567663	396.965240
LFoot	0.000000	411.539612	0.000000	86.993790	-9.419292	-7.421347	182.020935
RFoot	0.000000	396.965240	0.000000	85.685738	19.489246	8.810133	181.714371
Neck	0.000000	303.935425	0.000000	26.917892	0.010495	-0.245093	141.112030
Head	0.000000	141.112030	0.000000	-34.290924	-1.751020	-3.852423	164.098740
#Beginning of Data. Separated by tabs.
[LowerTorso]
#Fr	Tx	Ty	Tz	Rx	Ry	Rz	SF
625	-861.048218	815.153748	139.479248	-172.258621	-17.991123	165.996643	1.000000
626	-880.108643	803.897217	123.865959	-173.322922	-16.074213	165.424728	1.000000
627	-897.171570	793.700806	108.794518	-174.493790	-14.393317	164.816925	1.000000
628	-911.927246	784.512268	93.978424	-175.706909	-12.715680	164.535004	1.000000
629	-925.014771	776.240417	79.374168	-176.759491	-10.940815	164.679276	1.000000
630	-937.015930	769.280579	65.030602	-177.567108	-9.180579	165.035797	1.000000
631	-947.848206	764.229187	50.950081	-178.246109	-7.599434	165.334930	1.000000
[UpperTorso]
#Fr	Tx	Ty	Tz	Rx	Ry	Rz	SF
625	0.000000	0.000000	0.000000	16.467167	8.473262	-5.274516	1.000000
626	0.000000	0.000000	0.000000	17.639820	8.412265	-5.504626	1.000000
627	0.000000	0.000000	0.000000	18.991659	8.212052	-5.601440	1.000000
628	0.000000	0.000000	0.000000	20.332760	7.999192	-5.383698	1.000000
629	0.000000	0.000000	0.000000	21.457417	7.794080	-4.812975	1.000000
630	0.000000	0.000000	0.000000	22.240026	7.460957	-4.075319	1.000000
631	0.000000	0.000000	0.000000	22.677612	6.822612	-3.447796	1.000000
[LCollarBone]
#Fr	Tx	Ty	Tz	Rx	Ry	Rz	SF
625	0.000000	0.000000	0.000000	8.872402	0.460394	8.704949	1.000000
626	0.000000	0.000000	0.000000	7.858065	0.382919	8.613214	1.000000
627	0.000000	0.000000	0.000000	6.574951	0.289829	8.428524	1.000000
628	0.000000	0.000000	0.000000	5.399422	0.224313	8.071110	1.000000
629	0.000000	0.000000	0.000000	4.688313	0.225132	7.504044	1.000000
630	0.000000	0.000000	0.000000	4.610329	0.311644	6.774741	1.000000
631	0.000000	0.000000	0.000000	5.076281	0.474541	5.990098	1.000000
[RCollarBone]
#Fr	Tx	Ty	Tz	Rx	Ry	Rz	SF
625	0.000000	0.000000	0.000000	6.854962	-0.249702	-8.338656	1.000000
626	0.000000	0.000000	0.000000	7.761331	-0.381150	-6.814990	1.000000
627	0.000000	0.000000	0.000000	8.569344	-0.514607	-5.649199	1.000000
628	0.000000	0.000000	0.000000	9.174743	-0.622109	-4.890094	1.000000
629	0.000000	0.000000	0.000000	9.550937	-0.694535	-4.464214	1.000000
630	0.000000	0.000000	0.000000	9.817147	-0.746500	-4.210460	1.000000
631	0.000000	0.000000	0.000000	10.121205	-0.802979	-3.959784	1.000000
[LUpArm]
#Fr	Tx	Ty	Tz	Rx	Ry	Rz	SF
625	0.000000	0.000000	0.000000	-29.977472	-3.187864	-3.791908	1.000000
626	0.000000	0.000000	0.000000	-27.790699	-4.585274	-5.343068	1.000000
627	0.000000	0.000000	0.000000	-24.628023	-5.849591	-7.346183	1.000000
628	0.000000	0.000000	0.000000	-21.045572	-6.956215	-9.622971	1.000000
629	0.000000	0.000000	0.000000	-17.703520	-7.829310	-11.951054	1.000000
630	0.000000	0.000000	0.000000	-15.093475	-8.363832	-14.120004	1.000000
631	0.000000	0.000000	0.000000	-13.329859	-8.416108	-15.996850	1.000000
[RUpArm]
#Fr	Tx	Ty	Tz	Rx	Ry	Rz	SF
625	0.000000	0.000000	0.000000	59.182518	17.307554	1.001298	1.000000
626	0.000000	0.000000	0.000000	58.811325	15.663337	3.367092	1.000000
627	0.000000	0.000000	0.000000	58.029266	14.050837	5.625209	1.000000
628	0.000000	0.000000	0.000000	56.824829	12.545877	7.595151	1.000000
629	0.000000	0.000000	0.000000	55.273781	11.207053	8.933510	1.000000
630	0.000000	0.000000	0.000000	53.483162	10.187119	9.360155	1.000000
631	0.000000	0.000000	0.000000	51.597542	9.627816	8.710670	1.000000
[LLowArm]
#Fr	Tx	Ty	Tz	Rx	Ry	Rz	SF
625	0.000000	0.000000	0.000000	-2.184178	0.332493	-0.052760	1.000000
626	0.000000	0.000000	0.000000	-3.877488	0.588695	-0.102355	1.000000
627	0.000000	0.000000	0.000000	-5.777966	0.874295	-0.166997	1.000000
628	0.000000	0.000000	0.000000	-7.278526	1.098136	-0.224699	1.000000
629	0.000000	0.000000	0.000000	-7.957510	1.198891	-0.252728	1.000000
630	0.000000	0.000000	0.000000	-7.723561	1.164214	-0.242935	1.000000
631	0.000000	0.000000	0.000000	-6.868196	1.037082	-0.208339	1.000000
[RLowArm]
#Fr	Tx	Ty	Tz	Rx	Ry	Rz	SF
625	0.000000	0.000000	0.000000	106.903694	4.928453	6.439455	1.000000
626	0.000000	0.000000	0.000000	107.697632	4.908761	6.506474	1.000000
627	0.000000	0.000000	0.000000	108.809456	4.879630	6.599856	1.000000
628	0.000000	0.000000	0.000000	110.099777	4.843563	6.707499	1.000000
629	0.000000	0.000000	0.000000	111.410431	4.804460	6.815980	1.000000
630	0.000000	0.000000	0.000000	112.617043	4.766280	6.915038	1.000000
631	0.000000	0.000000	0.000000	113.686325	4.730711	7.002137	1.000000
[LHand]
#Fr	Tx	Ty	Tz	Rx	Ry	Rz	SF
625	0.000000	0.000000	0.000000	4.085734	-16.204166	4.918738	1.000000
626	0.000000	0.000000	0.000000	3.983984	-15.905933	4.282657	1.000000
627	0.000000	0.000000	0.000000	4.259604	-15.987919	3.652695	1.000000
628	0.000000	0.000000	0.000000	4.665238	-16.207853	3.100723	1.000000
629	0.000000	0.000000	0.000000	5.070722	-16.392868	2.550184	1.000000
630	0.000000	0.000000	0.000000	5.378037	-16.455917	1.901221	1.000000
631	0.000000	0.000000	0.000000	5.648530	-16.444315	1.050849	1.000000
[RHand]
#Fr	Tx	Ty	Tz	Rx	Ry	Rz	SF
625	0.000000	0.000000	0.000000	7.060485	-20.935455	-18.061974	1.000000
626	0.000000	0.000000	0.000000	7.011662	-20.305264	-19.074543	1.000000
627	0.000000	0.000000	0.000000	7.167919	-19.590605	-19.744732	1.000000
628	0.000000	0.000000	0.000000	7.788867	-18.961649	-20.028282	1.000000
629	0.000000	0.000000	0.000000	8.980731	-18.746933	-20.093435	1.000000
630	0.000000	0.000000	0.000000	10.620558	-19.223228	-20.034628	1.000000
631	0.000000	0.000000	0.000000	12.502728	-20.543468	-20.011068	1.000000
[LPelvis]
#Fr	Tx	Ty	Tz	Rx	Ry	Rz	SF
625	0.000000	0.000000	0.000000	0.000000	0.000000	0.000000	1.000000
626	0.000000	0.000000	0.000000	0.000000	0.000000	0.000000	1.000000
627	0.000000	0.000000	0.000000	0.000000	0.000000	0.000000	1.000000
628	0.000000	0.000000	0.000000	0.000000	0.000000	0.000000	1.000000
629	0.000000	0.000000	0.000000	0.000000	0.000000	0.000000	1.000000
630	0.000000	0.000000	0.000000	0.000000	0.000000	0.000000	1.000000
631	0.000000	0.000000	0.000000	0.000000	0.000000	0.000000	1.000000
[RPelvis]
#Fr	Tx	Ty	Tz	Rx	Ry	Rz	SF
625	0.000000	0.000000	0.000000	0.000000	0.000000	0.000000	1.000000
626	0.000000	0.000000	0.000000	0.000000	0.000000	0.000000	1.000000
627	0.000000	0.000000	0.000000	0.000000	0.000000	0.000000	1.000000
628	0.000000	0.000000	0.000000	0.000000	0.000000	0.000000	1.000000
629	0.000000	0.000000	0.000000	0.000000	0.000000	0.000000	1.000000
630	0.000000	0.000000	0.000000	0.000000	0.000000	0.000000	1.000000
631	0.000000	0.000000	0.000000	0.000000	0.000000	0.000000	1.000000
[LThigh]
#Fr	Tx	Ty	Tz	Rx	Ry	Rz	SF
625	0.000000	0.000000	0.000000	38.225323	13.231746	-1.751451	1.000000
626	0.000000	0.000000	0.000000	39.376205	13.129075	-3.189323	1.000000
627	0.000000	0.000000	0.000000	40.104698	11.161975	-5.460090	1.000000
628	0.000000	0.000000	0.000000	40.335701	8.077645	-7.580101	1.000000
629	0.000000	0.000000	0.000000	40.282280	5.310665	-8.860056	1.000000
630	0.000000	0.000000	0.000000	39.991093	3.751650	-9.412618	1.000000
631	0.000000	0.000000	0.000000	39.352871	3.228085	-9.722635	1.000000
[RThigh]
#Fr	Tx	Ty	Tz	Rx	Ry	Rz	SF
625	0.000000	0.000000	0.000000	2.388938	-5.883893	1.886015	1.000000
626	0.000000	0.000000	0.000000	3.758979	-4.285184	-0.088414	1.000000
627	0.000000	0.000000	0.000000	5.253974	-3.118065	-1.517156	1.000000
628	0.000000	0.000000	0.000000	7.157827	-2.302159	-2.089594	1.000000
629	0.000000	0.000000	0.000000	9.686963	-1.748718	-1.801061	1.000000
630	0.000000	0.000000	0.000000	12.748720	-1.284861	-1.006092	1.000000
631	0.000000	0.000000	0.000000	16.058119	-0.690093	-0.113449	1.000000
[LLowLeg]
#Fr	Tx	Ty	Tz	Rx	Ry	Rz	SF
625	0.000000	0.000000	0.000000	-24.464981	2.020225	0.089640	1.000000
626	0.000000	0.000000	0.000000	-30.715603	2.527252	-0.025807	1.000000
627	0.000000	0.000000	0.000000	-36.467731	2.979970	-0.180269	1.000000
628	0.000000	0.000000	0.000000	-41.314720	3.347641	-0.345128	1.000000
629	0.000000	0.000000	0.000000	-45.273907	3.636629	-0.502468	1.000000
630	0.000000	0.000000	0.000000	-48.419102	3.857944	-0.641454	1.000000
631	0.000000	0.000000	0.000000	-50.767620	4.017996	-0.753042	1.000000
[RLowLeg]
#Fr	Tx	Ty	Tz	Rx	Ry	Rz	SF
625	0.000000	0.000000	0.000000	-52.866367	-2.841051	0.573354	1.000000
626	0.000000	0.000000	0.000000	-57.780773	-3.053642	0.753869	1.000000
627	0.000000	0.000000	0.000000	-62.746429	-3.251900	0.954083	1.000000
628	0.000000	0.000000	0.000000	-67.845634	-3.436633	1.176739	1.000000
629	0.000000	0.000000	0.000000	-72.894173	-3.599300	1.412492	1.000000
630	0.000000	0.000000	0.000000	-77.503716	-3.729179	1.639492	1.000000
631	0.000000	0.000000	0.000000	-81.317162	-3.822561	1.834685	1.000000
[LFoot]
#Fr	Tx	Ty	Tz	Rx	Ry	Rz	SF
625	0.000000	0.000000	0.000000	-4.417793	1.535454	1.337907	1.000000
626	0.000000	0.000000	0.000000	-4.801151	2.586282	2.847136	1.000000
627	0.000000	0.000000	0.000000	-3.204988	2.294785	2.958634	1.000000
628	0.000000	0.000000	0.000000	-0.059271	1.291620	2.395772	1.000000
629	0.000000	0.000000	0.000000	3.631395	0.372873	2.049468	1.000000
630	0.000000	0.000000	0.000000	6.898394	-0.099835	2.503556	1.000000
631	0.000000	0.000000	0.000000	9.222726	-0.199920	3.656804	1.000000
[RFoot]
#Fr	Tx	Ty	Tz	Rx	Ry	Rz	SF
625	0.000000	0.000000	0.000000	-24.098402	9.223862	13.133481	1.000000
626	0.000000	0.000000	0.000000	-26.189169	5.688009	10.380816	1.000000
627	0.000000	0.000000	0.000000	-26.306011	1.478080	7.442276	1.000000
628	0.000000	0.000000	0.000000	-24.111834	-2.592378	4.168994	1.000000
629	0.000000	0.000000	0.000000	-20.087328	-5.448148	0.740886	1.000000
630	0.000000	0.000000	0.000000	-15.284122	-6.350026	-1.990148	1.000000
631	0.000000	0.000000	0.000000	-10.824328	-5.514996	-3.127429	1.000000
[Neck]
#Fr	Tx	Ty	Tz	Rx	Ry	Rz	SF
625	0.000000	0.000000	0.000000	-0.638497	-10.023385	6.371596	1.000000
626	0.000000	0.000000	0.000000	-1.002093	-9.978950	6.398738	1.000000
627	0.000000	0.000000	0.000000	-1.485254	-9.941343	6.459702	1.000000
628	0.000000	0.000000	0.000000	-1.983351	-9.931991	6.533445	1.000000
629	0.000000	0.000000	0.000000	-2.384371	-9.970295	6.625033	1.000000
630	0.000000	0.000000	0.000000	-2.594948	-10.017465	6.744221	1.000000
631	0.000000	0.000000	0.000000	-2.580285	-10.034588	6.895505	1.000000
[Head]
#Fr	Tx	Ty	Tz	Rx	Ry	Rz	SF
625	0.000000	0.000000	0.000000	1.559333	-23.624907	-1.318951	1.000000
626	0.000000	0.000000	0.000000	0.778202	-23.615499	-1.054838	1.000000
627	0.000000	0.000000	0.000000	-0.248830	-23.684338	-0.704376	1.000000
628	0.000000	0.000000	0.000000	-1.294057	-23.854851	-0.365445	1.000000
629	0.000000	0.000000	0.000000	-2.124875	-24.106192	-0.092857	1.000000
630	0.000000	0.000000	0.000000	-2.561917	-24.365105	0.122816	1.000000
631	0.000000	0.000000	0.000000	-2.574423	-24.543688	0.348984	1.000000
[EndOfFile]
